<svg width="358" height="259" viewBox="0 0 358 259" fill="none" xmlns="http://www.w3.org/2000/svg">
<path d="M73.7542 227.006H79.1472V258H73.7542V252.669C71.0681 256.76 67.1628 258.806 62.0385 258.806C57.6993 258.806 54.0007 257.235 50.9427 254.095C47.8846 250.913 46.3555 247.049 46.3555 242.503C46.3555 237.957 47.8846 234.114 50.9427 230.973C54.0007 227.791 57.6993 226.2 62.0385 226.2C67.1628 226.2 71.0681 228.246 73.7542 232.337V227.006ZM62.7204 253.599C65.8611 253.599 68.4852 252.545 70.5928 250.437C72.7004 248.289 73.7542 245.644 73.7542 242.503C73.7542 239.362 72.7004 236.738 70.5928 234.631C68.4852 232.482 65.8611 231.407 62.7204 231.407C59.621 231.407 57.0175 232.482 54.9099 234.631C52.8023 236.738 51.7485 239.362 51.7485 242.503C51.7485 245.644 52.8023 248.289 54.9099 250.437C57.0175 252.545 59.621 253.599 62.7204 253.599ZM102.939 232.213H94.6945V249.012C94.6945 250.541 94.9838 251.636 95.5624 252.297C96.1822 252.917 97.1121 253.248 98.3518 253.289C99.5916 253.289 101.121 253.248 102.939 253.165V258C98.2279 258.62 94.7772 258.248 92.5869 256.884C90.3967 255.479 89.3016 252.855 89.3016 249.012V232.213H83.1648V227.006H89.3016V219.939L94.6945 218.328V227.006H102.939V232.213ZM164.923 236.49V239.094C164.923 244.755 162.98 249.466 159.096 253.227C155.211 256.946 150.066 258.806 143.661 258.806C137.049 258.806 131.573 256.636 127.234 252.297C122.936 247.917 120.787 242.586 120.787 236.304C120.787 230.023 122.936 224.712 127.234 220.373C131.573 215.993 137.007 213.803 143.537 213.803C147.545 213.803 151.223 214.774 154.571 216.716C157.918 218.617 160.501 221.138 162.319 224.279L157.36 227.192C156.12 224.836 154.24 222.956 151.719 221.551C149.24 220.105 146.491 219.381 143.475 219.381C138.516 219.381 134.445 221.014 131.263 224.279C128.081 227.502 126.49 231.51 126.49 236.304C126.49 241.098 128.081 245.107 131.263 248.33C134.486 251.553 138.64 253.165 143.723 253.165C148.062 253.165 151.574 252.111 154.261 250.004C156.947 247.855 158.579 245.086 159.158 241.697H143.227V236.49H164.923ZM175.528 232.213C177.305 228.37 180.528 226.448 185.198 226.448V232.089C182.553 231.965 180.28 232.668 178.379 234.197C176.478 235.726 175.528 238.185 175.528 241.573V258H170.135V227.006H175.528V232.213ZM213.699 254.095C210.517 257.235 206.653 258.806 202.107 258.806C197.561 258.806 193.697 257.235 190.515 254.095C187.375 250.954 185.804 247.09 185.804 242.503C185.804 237.916 187.375 234.052 190.515 230.911C193.697 227.771 197.561 226.2 202.107 226.2C206.653 226.2 210.517 227.771 213.699 230.911C216.881 234.052 218.472 237.916 218.472 242.503C218.472 247.09 216.881 250.954 213.699 254.095ZM202.107 253.537C205.206 253.537 207.81 252.483 209.918 250.375C212.025 248.268 213.079 245.644 213.079 242.503C213.079 239.362 212.025 236.738 209.918 234.631C207.81 232.523 205.206 231.469 202.107 231.469C199.049 231.469 196.466 232.523 194.359 234.631C192.251 236.738 191.197 239.362 191.197 242.503C191.197 245.644 192.251 248.268 194.359 250.375C196.466 252.483 199.049 253.537 202.107 253.537ZM258.89 227.006H264.531L254.923 258H249.406L242.153 235.064L234.901 258H229.384L219.776 227.006H225.417L232.235 250.561L239.55 227.006H244.757L252.071 250.623L258.89 227.006ZM285.702 232.213H277.457V249.012C277.457 250.541 277.747 251.636 278.325 252.297C278.945 252.917 279.875 253.248 281.115 253.289C282.354 253.289 283.883 253.248 285.702 253.165V258C280.991 258.62 277.54 258.248 275.35 256.884C273.16 255.479 272.064 252.855 272.064 249.012V232.213H265.928V227.006H272.064V219.939L277.457 218.328V227.006H285.702V232.213ZM306.282 226.2C309.918 226.2 312.832 227.357 315.022 229.671C317.212 231.944 318.307 235.044 318.307 238.97V258H312.914V239.28C312.914 236.759 312.233 234.816 310.869 233.453C309.505 232.048 307.625 231.345 305.228 231.345C302.542 231.345 300.372 232.192 298.719 233.887C297.066 235.54 296.24 238.102 296.24 241.573V258H290.847V214.608H296.24V231.469C298.43 227.956 301.777 226.2 306.282 226.2ZM356.024 258H349.453L338.792 240.891L328.13 258H321.621L335.568 235.684L322.427 214.608H328.935L338.792 230.415L348.648 214.608H355.156L342.077 235.622L356.024 258Z" fill="#001B42"/>
<path d="M288.133 0L356.633 54.7998L356.8 54.9326V196.8H43.2998L42.7998 196.133L0 139.066V0H288.133ZM7.59961 136.533L36 174.4V54.1396L7.59961 14.9395V136.533ZM82.7783 78.3271V165H129.004V159.222H134.782V153.443H140.56V124.553H134.782V118.774H140.56V89.8838H134.782V84.1055H129.004V78.3271H82.7783ZM148.979 101.44V153.443H154.758V159.222H160.535V165H183.648V159.222H189.427V165H206.761V101.44H189.427V141.888H183.648V147.666H166.313V101.44H148.979ZM215.18 107.219V165H232.515V107.219H215.18ZM241.007 78.3271V165H258.342V78.3271H241.007ZM289.947 84.1055V89.8838H284.169V95.6621H278.391V107.219H266.834V118.774H278.391V153.443H284.169V159.222H289.947V165H313.06V153.443H301.503V147.666H295.725V118.774H313.06V107.219H295.725V84.1055H289.947ZM117.447 130.331V136.109H123.226V141.888H117.447V147.666H100.113V130.331H117.447ZM117.447 95.6621V101.44H123.226V107.219H117.447V112.996H100.113V95.6621H117.447ZM215.18 78.3271V95.6621H232.515V78.3271H215.18ZM10.9258 7.59961L40.1953 48H335.967L285.466 7.59961H10.9258Z" fill="#111E31"/>
</svg>
