<svg width="358" height="259" viewBox="0 0 358 259" fill="none" xmlns="http://www.w3.org/2000/svg">
<path fill-rule="evenodd" clip-rule="evenodd" d="M0 139.066L42.7998 196.133L43.2998 196.8H43.5996H356.8V55.5996V54.9326L356.633 54.7998L288.133 0H0V139.066ZM36 54.1396V174.4L7.59961 136.533V14.9395L36 54.1396ZM335.967 48H40.1953L10.9258 7.59961H285.466L335.967 48Z" fill="#111E31"/>
<path d="M73.7542 227.006H79.1472V258H73.7542V252.669C71.0681 256.76 67.1628 258.806 62.0385 258.806C57.6993 258.806 54.0007 257.235 50.9427 254.095C47.8846 250.913 46.3555 247.049 46.3555 242.503C46.3555 237.957 47.8846 234.114 50.9427 230.973C54.0007 227.791 57.6993 226.2 62.0385 226.2C67.1628 226.2 71.0681 228.246 73.7542 232.337V227.006ZM62.7204 253.599C65.8611 253.599 68.4852 252.545 70.5928 250.437C72.7004 248.289 73.7542 245.644 73.7542 242.503C73.7542 239.362 72.7004 236.738 70.5928 234.631C68.4852 232.482 65.8611 231.407 62.7204 231.407C59.621 231.407 57.0175 232.482 54.9099 234.631C52.8023 236.738 51.7485 239.362 51.7485 242.503C51.7485 245.644 52.8023 248.289 54.9099 250.437C57.0175 252.545 59.621 253.599 62.7204 253.599ZM102.939 232.213H94.6945V249.012C94.6945 250.541 94.9838 251.636 95.5624 252.297C96.1822 252.917 97.1121 253.248 98.3518 253.289C99.5916 253.289 101.121 253.248 102.939 253.165V258C98.2279 258.62 94.7772 258.248 92.5869 256.884C90.3967 255.479 89.3016 252.855 89.3016 249.012V232.213H83.1648V227.006H89.3016V219.939L94.6945 218.328V227.006H102.939V232.213ZM164.923 236.49V239.094C164.923 244.755 162.98 249.466 159.096 253.227C155.211 256.946 150.066 258.806 143.661 258.806C137.049 258.806 131.573 256.636 127.234 252.297C122.936 247.917 120.787 242.586 120.787 236.304C120.787 230.023 122.936 224.712 127.234 220.373C131.573 215.993 137.007 213.803 143.537 213.803C147.545 213.803 151.223 214.774 154.571 216.716C157.918 218.617 160.501 221.138 162.319 224.279L157.36 227.192C156.12 224.836 154.24 222.956 151.719 221.551C149.24 220.105 146.491 219.381 143.475 219.381C138.516 219.381 134.445 221.014 131.263 224.279C128.081 227.502 126.49 231.51 126.49 236.304C126.49 241.098 128.081 245.107 131.263 248.33C134.486 251.553 138.64 253.165 143.723 253.165C148.062 253.165 151.574 252.111 154.261 250.004C156.947 247.855 158.579 245.086 159.158 241.697H143.227V236.49H164.923ZM175.528 232.213C177.305 228.37 180.528 226.448 185.198 226.448V232.089C182.553 231.965 180.28 232.668 178.379 234.197C176.478 235.726 175.528 238.185 175.528 241.573V258H170.135V227.006H175.528V232.213ZM213.699 254.095C210.517 257.235 206.653 258.806 202.107 258.806C197.561 258.806 193.697 257.235 190.515 254.095C187.375 250.954 185.804 247.09 185.804 242.503C185.804 237.916 187.375 234.052 190.515 230.911C193.697 227.771 197.561 226.2 202.107 226.2C206.653 226.2 210.517 227.771 213.699 230.911C216.881 234.052 218.472 237.916 218.472 242.503C218.472 247.09 216.881 250.954 213.699 254.095ZM202.107 253.537C205.206 253.537 207.81 252.483 209.918 250.375C212.025 248.268 213.079 245.644 213.079 242.503C213.079 239.362 212.025 236.738 209.918 234.631C207.81 232.523 205.206 231.469 202.107 231.469C199.049 231.469 196.466 232.523 194.359 234.631C192.251 236.738 191.197 239.362 191.197 242.503C191.197 245.644 192.251 248.268 194.359 250.375C196.466 252.483 199.049 253.537 202.107 253.537ZM258.89 227.006H264.531L254.923 258H249.406L242.153 235.064L234.901 258H229.384L219.776 227.006H225.417L232.235 250.561L239.55 227.006H244.757L252.071 250.623L258.89 227.006ZM285.702 232.213H277.457V249.012C277.457 250.541 277.747 251.636 278.325 252.297C278.945 252.917 279.875 253.248 281.115 253.289C282.354 253.289 283.883 253.248 285.702 253.165V258C280.991 258.62 277.54 258.248 275.35 256.884C273.16 255.479 272.064 252.855 272.064 249.012V232.213H265.928V227.006H272.064V219.939L277.457 218.328V227.006H285.702V232.213ZM306.282 226.2C309.918 226.2 312.832 227.357 315.022 229.671C317.212 231.944 318.307 235.044 318.307 238.97V258H312.914V239.28C312.914 236.759 312.233 234.816 310.869 233.453C309.505 232.048 307.625 231.345 305.228 231.345C302.542 231.345 300.372 232.192 298.719 233.887C297.066 235.54 296.24 238.102 296.24 241.573V258H290.847V214.608H296.24V231.469C298.43 227.956 301.777 226.2 306.282 226.2ZM356.024 258H349.453L338.792 240.891L328.13 258H321.621L335.568 235.684L322.427 214.608H328.935L338.792 230.415L348.648 214.608H355.156L342.077 235.622L356.024 258Z" fill="#001B42"/>
<path d="M82.7782 78.3275H88.5563V84.1057H82.7782V78.3275ZM88.5563 78.3275H94.3345V84.1057H88.5563V78.3275ZM94.3345 78.3275H100.113V84.1057H94.3345V78.3275ZM100.113 78.3275H105.891V84.1057H100.113V78.3275ZM105.891 78.3275H111.669V84.1057H105.891V78.3275ZM111.669 78.3275H117.447V84.1057H111.669V78.3275ZM117.447 78.3275H123.225V84.1057H117.447V78.3275ZM123.225 78.3275H129.004V84.1057H123.225V78.3275ZM123.225 84.1057H129.004V89.8838H123.225V84.1057ZM129.004 84.1057H134.782V89.8838H129.004V84.1057ZM117.447 84.1057H123.225V89.8838H117.447V84.1057ZM111.669 84.1057H117.447V89.8838H111.669V84.1057ZM105.891 84.1057H111.669V89.8838H105.891V84.1057ZM100.113 84.1057H105.891V89.8838H100.113V84.1057ZM94.3345 84.1057H100.113V89.8838H94.3345V84.1057ZM88.5563 84.1057H94.3345V89.8838H88.5563V84.1057ZM82.7782 84.1057H88.5563V89.8838H82.7782V84.1057ZM82.7782 89.8838H88.5563V95.662H82.7782V89.8838ZM88.5563 89.8838H94.3345V95.662H88.5563V89.8838ZM94.3345 89.8838H100.113V95.662H94.3345V89.8838ZM100.113 89.8838H105.891V95.662H100.113V89.8838ZM111.669 89.8838H117.447V95.662H111.669V89.8838ZM117.447 89.8838H123.225V95.662H117.447V89.8838ZM123.225 89.8838H129.004V95.662H123.225V89.8838ZM129.004 89.8838H134.782V95.662H129.004V89.8838ZM134.782 89.8838H140.56V95.662H134.782V89.8838ZM105.891 89.8838H111.669V95.662H105.891V89.8838ZM117.447 95.662H123.225V101.44H117.447V95.662ZM123.225 95.662H129.004V101.44H123.225V95.662ZM134.782 95.662H140.56V101.44H134.782V95.662ZM129.004 95.662H134.782V101.44H129.004V95.662ZM129.004 101.44H134.782V107.218H129.004V101.44ZM129.004 107.218H134.782V112.996H129.004V107.218ZM134.782 107.218H140.56V112.996H134.782V107.218ZM134.782 112.996H140.56V118.775H134.782V112.996ZM134.782 101.44H140.56V107.218H134.782V101.44ZM123.225 107.218H129.004V112.996H123.225V107.218ZM123.225 101.44H129.004V107.218H123.225V101.44ZM117.447 107.218H123.225V112.996H117.447V107.218ZM123.225 112.996H129.004V118.775H123.225V112.996ZM129.004 112.996H134.782V118.775H129.004V112.996ZM129.004 118.775H134.782V124.553H129.004V118.775ZM129.004 124.553H134.782V130.331H129.004V124.553ZM134.782 124.553H140.56V130.331H134.782V124.553ZM134.782 130.331H140.56V136.109H134.782V130.331ZM134.782 136.109H140.56V141.887H134.782V136.109ZM134.782 141.887H140.56V147.665H134.782V141.887ZM134.782 147.665H140.56V153.444H134.782V147.665ZM129.004 147.665H134.782V153.444H129.004V147.665ZM129.004 153.444H134.782V159.222H129.004V153.444ZM123.225 153.444H129.004V159.222H123.225V153.444ZM123.225 147.665H129.004V153.444H123.225V147.665ZM117.447 147.665H123.225V153.444H117.447V147.665ZM117.447 141.887H123.225V147.665H117.447V141.887ZM123.225 141.887H129.004V147.665H123.225V141.887ZM129.004 141.887H134.782V147.665H129.004V141.887ZM129.004 136.109H134.782V141.887H129.004V136.109ZM129.004 130.331H134.782V136.109H129.004V130.331ZM123.225 130.331H129.004V136.109H123.225V130.331ZM123.225 136.109H129.004V141.887H123.225V136.109ZM117.447 130.331H123.225V136.109H117.447V130.331ZM117.447 124.553H123.225V130.331H117.447V124.553ZM123.225 124.553H129.004V130.331H123.225V124.553ZM123.225 118.775H129.004V124.553H123.225V118.775ZM117.447 118.775H123.225V124.553H117.447V118.775ZM117.447 112.996H123.225V118.775H117.447V112.996ZM111.669 124.553H117.447V130.331H111.669V124.553ZM105.891 124.553H111.669V130.331H105.891V124.553ZM100.113 124.553H105.891V130.331H100.113V124.553ZM100.113 118.775H105.891V124.553H100.113V118.775ZM105.891 118.775H111.669V124.553H105.891V118.775ZM105.891 112.996H111.669V118.775H105.891V112.996ZM111.669 112.996H117.447V118.775H111.669V112.996ZM100.113 112.996H105.891V118.775H100.113V112.996ZM111.669 118.775H117.447V124.553H111.669V118.775ZM88.5563 95.662H94.3345V101.44H88.5563V95.662ZM94.3345 95.662H100.113V101.44H94.3345V95.662ZM94.3345 101.44H100.113V107.218H94.3345V101.44ZM94.3345 107.218H100.113V112.996H94.3345V107.218ZM94.3345 112.996H100.113V118.775H94.3345V112.996ZM88.5563 112.996H94.3345V118.775H88.5563V112.996ZM82.7782 112.996H88.5563V118.775H82.7782V112.996ZM82.7782 107.218H88.5563V112.996H82.7782V107.218ZM82.7782 101.44H88.5563V107.218H82.7782V101.44ZM82.7782 95.662H88.5563V101.44H82.7782V95.662ZM88.5563 107.218H94.3345V112.996H88.5563V107.218ZM88.5563 118.775H94.3345V124.553H88.5563V118.775ZM88.5563 101.44H94.3345V107.218H88.5563V101.44ZM82.7782 118.775H88.5563V124.553H82.7782V118.775ZM82.7782 124.553H88.5563V130.331H82.7782V124.553ZM88.5563 124.553H94.3345V130.331H88.5563V124.553ZM94.3345 118.775H100.113V124.553H94.3345V118.775ZM94.3345 124.553H100.113V130.331H94.3345V124.553ZM94.3345 130.331H100.113V136.109H94.3345V130.331ZM94.3345 136.109H100.113V141.887H94.3345V136.109ZM94.3345 141.887H100.113V147.665H94.3345V141.887ZM94.3345 147.665H100.113V153.444H94.3345V147.665ZM100.113 147.665H105.891V153.444H100.113V147.665ZM105.891 147.665H111.669V153.444H105.891V147.665ZM111.669 147.665H117.447V153.444H111.669V147.665ZM117.447 153.444H123.225V159.222H117.447V153.444ZM123.225 159.222H129.004V165H123.225V159.222ZM117.447 159.222H123.225V165H117.447V159.222ZM111.669 159.222H117.447V165H111.669V159.222ZM105.891 159.222H111.669V165H105.891V159.222ZM100.113 159.222H105.891V165H100.113V159.222ZM94.3345 159.222H100.113V165H94.3345V159.222ZM88.5563 159.222H94.3345V165H88.5563V159.222ZM82.7782 159.222H88.5563V165H82.7782V159.222ZM82.7782 153.444H88.5563V159.222H82.7782V153.444ZM82.7782 147.665H88.5563V153.444H82.7782V147.665ZM82.7782 141.887H88.5563V147.665H82.7782V141.887ZM82.7782 136.109H88.5563V141.887H82.7782V136.109ZM82.7782 130.331H88.5563V136.109H82.7782V130.331ZM88.5563 130.331H94.3345V136.109H88.5563V130.331ZM88.5563 136.109H94.3345V141.887H88.5563V136.109ZM88.5563 141.887H94.3345V147.665H88.5563V141.887ZM88.5563 147.665H94.3345V153.444H88.5563V147.665ZM88.5563 153.444H94.3345V159.222H88.5563V153.444ZM94.3345 153.444H100.113V159.222H94.3345V153.444ZM100.113 153.444H105.891V159.222H100.113V153.444ZM105.891 153.444H111.669V159.222H105.891V153.444ZM111.669 153.444H117.447V159.222H111.669V153.444ZM148.979 101.44H154.757V107.218H148.979V101.44ZM154.757 101.44H160.535V107.218H154.757V101.44ZM160.535 101.44H166.314V107.218H160.535V101.44ZM160.535 107.218H166.314V112.996H160.535V107.218ZM160.535 112.996H166.314V118.775H160.535V112.996ZM160.535 118.775H166.314V124.553H160.535V118.775ZM160.535 124.553H166.314V130.331H160.535V124.553ZM160.535 130.331H166.314V136.109H160.535V130.331ZM154.757 130.331H160.535V136.109H154.757V130.331ZM154.757 124.553H160.535V130.331H154.757V124.553ZM154.757 118.775H160.535V124.553H154.757V118.775ZM148.979 112.996H154.757V118.775H148.979V112.996ZM148.979 107.218H154.757V112.996H148.979V107.218ZM154.757 112.996H160.535V118.775H154.757V112.996ZM154.757 107.218H160.535V112.996H154.757V107.218ZM148.979 118.775H154.757V124.553H148.979V118.775ZM148.979 124.553H154.757V130.331H148.979V124.553ZM148.979 130.331H154.757V136.109H148.979V130.331ZM148.979 136.109H154.757V141.887H148.979V136.109ZM154.757 136.109H160.535V141.887H154.757V136.109ZM160.535 136.109H166.314V141.887H160.535V136.109ZM160.535 141.887H166.314V147.665H160.535V141.887ZM160.535 147.665H166.314V153.444H160.535V147.665ZM154.757 147.665H160.535V153.444H154.757V147.665ZM154.757 141.887H160.535V147.665H154.757V141.887ZM148.979 141.887H154.757V147.665H148.979V141.887ZM148.979 147.665H154.757V153.444H148.979V147.665ZM154.757 153.444H160.535V159.222H154.757V153.444ZM160.535 153.444H166.314V159.222H160.535V153.444ZM166.314 153.444H172.092V159.222H166.314V153.444ZM166.314 147.665H172.092V153.444H166.314V147.665ZM160.535 159.222H166.314V165H160.535V159.222ZM166.314 159.222H172.092V165H166.314V159.222ZM172.092 159.222H177.87V165H172.092V159.222ZM172.092 153.444H177.87V159.222H172.092V153.444ZM172.092 147.665H177.87V153.444H172.092V147.665ZM177.87 153.444H183.648V159.222H177.87V153.444ZM177.87 159.222H183.648V165H177.87V159.222ZM200.983 101.44H206.761V107.218H200.983V101.44ZM200.983 107.218H206.761V112.996H200.983V107.218ZM200.983 112.996H206.761V118.775H200.983V112.996ZM200.983 118.775H206.761V124.553H200.983V118.775ZM200.983 124.553H206.761V130.331H200.983V124.553ZM200.983 130.331H206.761V136.109H200.983V130.331ZM200.983 136.109H206.761V141.887H200.983V136.109ZM200.983 141.887H206.761V147.665H200.983V141.887ZM200.983 147.665H206.761V153.444H200.983V147.665ZM195.204 147.665H200.983V153.444H195.204V147.665ZM189.426 147.665H195.204V153.444H189.426V147.665ZM189.426 153.444H195.204V159.222H189.426V153.444ZM183.648 153.444H189.426V159.222H183.648V153.444ZM195.204 153.444H200.983V159.222H195.204V153.444ZM200.983 153.444H206.761V159.222H200.983V153.444ZM183.648 147.665H189.426V153.444H183.648V147.665ZM177.87 147.665H183.648V153.444H177.87V147.665ZM183.648 141.887H189.426V147.665H183.648V141.887ZM189.426 141.887H195.204V147.665H189.426V141.887ZM195.204 141.887H200.983V147.665H195.204V141.887ZM195.204 136.109H200.983V141.887H195.204V136.109ZM195.204 130.331H200.983V136.109H195.204V130.331ZM195.204 124.553H200.983V130.331H195.204V124.553ZM195.204 118.775H200.983V124.553H195.204V118.775ZM195.204 112.996H200.983V118.775H195.204V112.996ZM195.204 107.218H200.983V112.996H195.204V107.218ZM195.204 101.44H200.983V107.218H195.204V101.44ZM189.426 107.218H195.204V112.996H189.426V107.218ZM189.426 112.996H195.204V118.775H189.426V112.996ZM189.426 118.775H195.204V124.553H189.426V118.775ZM189.426 124.553H195.204V130.331H189.426V124.553ZM189.426 130.331H195.204V136.109H189.426V130.331ZM189.426 136.109H195.204V141.887H189.426V136.109ZM189.426 101.44H195.204V107.218H189.426V101.44ZM200.983 159.222H206.761V165H200.983V159.222ZM195.204 159.222H200.983V165H195.204V159.222ZM189.426 159.222H195.204V165H189.426V159.222ZM215.18 78.3275H220.958V84.1057H215.18V78.3275ZM215.18 84.1057H220.958V89.8838H215.18V84.1057ZM215.18 89.8838H220.958V95.662H215.18V89.8838ZM215.18 107.218H220.958V112.996H215.18V107.218ZM215.18 112.996H220.958V118.775H215.18V112.996ZM215.18 118.775H220.958V124.553H215.18V118.775ZM215.18 124.553H220.958V130.331H215.18V124.553ZM215.18 130.331H220.958V136.109H215.18V130.331ZM215.18 136.109H220.958V141.887H215.18V136.109ZM215.18 141.887H220.958V147.665H215.18V141.887ZM215.18 147.665H220.958V153.444H215.18V147.665ZM215.18 153.444H220.958V159.222H215.18V153.444ZM215.18 159.222H220.958V165H215.18V159.222ZM220.958 159.222H226.736V165H220.958V159.222ZM226.736 159.222H232.514V165H226.736V159.222ZM226.736 153.444H232.514V159.222H226.736V153.444ZM226.736 147.665H232.514V153.444H226.736V147.665ZM226.736 141.887H232.514V147.665H226.736V141.887ZM226.736 136.109H232.514V141.887H226.736V136.109ZM226.736 130.331H232.514V136.109H226.736V130.331ZM226.736 124.553H232.514V130.331H226.736V124.553ZM226.736 118.775H232.514V124.553H226.736V118.775ZM226.736 112.996H232.514V118.775H226.736V112.996ZM226.736 78.3275H232.514V84.1057H226.736V78.3275ZM220.958 78.3275H226.736V84.1057H220.958V78.3275ZM220.958 84.1057H226.736V89.8838H220.958V84.1057ZM226.736 84.1057H232.514V89.8838H226.736V84.1057ZM226.736 89.8838H232.514V95.662H226.736V89.8838ZM226.736 107.218H232.514V112.996H226.736V107.218ZM220.958 89.8838H226.736V95.662H220.958V89.8838ZM220.958 107.218H226.736V112.996H220.958V107.218ZM220.958 112.996H226.736V118.775H220.958V112.996ZM220.958 153.444H226.736V159.222H220.958V153.444ZM220.958 147.665H226.736V153.444H220.958V147.665ZM220.958 141.887H226.736V147.665H220.958V141.887ZM220.958 136.109H226.736V141.887H220.958V136.109ZM220.958 130.331H226.736V136.109H220.958V130.331ZM220.958 124.553H226.736V130.331H220.958V124.553ZM220.958 118.775H226.736V124.553H220.958V118.775ZM241.007 78.3275H246.785V84.1057H241.007V78.3275ZM241.007 84.1057H246.785V89.8838H241.007V84.1057ZM241.007 89.8838H246.785V95.662H241.007V89.8838ZM241.007 95.662H246.785V101.44H241.007V95.662ZM241.007 101.44H246.785V107.218H241.007V101.44ZM241.007 107.218H246.785V112.996H241.007V107.218ZM241.007 112.996H246.785V118.775H241.007V112.996ZM241.007 118.775H246.785V124.553H241.007V118.775ZM241.007 124.553H246.785V130.331H241.007V124.553ZM241.007 130.331H246.785V136.109H241.007V130.331ZM241.007 136.109H246.785V141.887H241.007V136.109ZM241.007 141.887H246.785V147.665H241.007V141.887ZM241.007 147.665H246.785V153.444H241.007V147.665ZM241.007 153.444H246.785V159.222H241.007V153.444ZM241.007 159.222H246.785V165H241.007V159.222ZM246.785 159.222H252.563V165H246.785V159.222ZM252.563 159.222H258.341V165H252.563V159.222ZM252.563 153.444H258.341V159.222H252.563V153.444ZM252.563 147.665H258.341V153.444H252.563V147.665ZM252.563 141.887H258.341V147.665H252.563V141.887ZM252.563 136.109H258.341V141.887H252.563V136.109ZM252.563 130.331H258.341V136.109H252.563V130.331ZM252.563 124.553H258.341V130.331H252.563V124.553ZM252.563 118.775H258.341V124.553H252.563V118.775ZM252.563 112.996H258.341V118.775H252.563V112.996ZM252.563 78.3275H258.341V84.1057H252.563V78.3275ZM246.785 78.3275H252.563V84.1057H246.785V78.3275ZM246.785 84.1057H252.563V89.8838H246.785V84.1057ZM252.563 84.1057H258.341V89.8838H252.563V84.1057ZM252.563 89.8838H258.341V95.662H252.563V89.8838ZM252.563 95.662H258.341V101.44H252.563V95.662ZM252.563 101.44H258.341V107.218H252.563V101.44ZM252.563 107.218H258.341V112.996H252.563V107.218ZM246.785 101.44H252.563V107.218H246.785V101.44ZM246.785 95.662H252.563V101.44H246.785V95.662ZM246.785 89.8838H252.563V95.662H246.785V89.8838ZM246.785 107.218H252.563V112.996H246.785V107.218ZM246.785 112.996H252.563V118.775H246.785V112.996ZM246.785 153.444H252.563V159.222H246.785V153.444ZM246.785 147.665H252.563V153.444H246.785V147.665ZM246.785 141.887H252.563V147.665H246.785V141.887ZM246.785 136.109H252.563V141.887H246.785V136.109ZM246.785 130.331H252.563V136.109H246.785V130.331ZM246.785 124.553H252.563V130.331H246.785V124.553ZM246.785 118.775H252.563V124.553H246.785V118.775ZM289.947 84.1057H295.725V89.8838H289.947V84.1057ZM289.947 89.8838H295.725V95.662H289.947V89.8838ZM284.169 89.8838H289.947V95.662H284.169V89.8838ZM289.947 95.662H295.725V101.44H289.947V95.662ZM284.169 95.662H289.947V101.44H284.169V95.662ZM278.39 95.662H284.169V101.44H278.39V95.662ZM278.39 101.44H284.169V107.218H278.39V101.44ZM284.169 101.44H289.947V107.218H284.169V101.44ZM289.947 101.44H295.725V107.218H289.947V101.44ZM289.947 107.218H295.725V112.996H289.947V107.218ZM284.169 107.218H289.947V112.996H284.169V107.218ZM278.39 107.218H284.169V112.996H278.39V107.218ZM272.612 107.218H278.39V112.996H272.612V107.218ZM266.834 107.218H272.612V112.996H266.834V107.218ZM266.834 112.996H272.612V118.775H266.834V112.996ZM272.612 112.996H278.39V118.775H272.612V112.996ZM278.39 112.996H284.169V118.775H278.39V112.996ZM284.169 112.996H289.947V118.775H284.169V112.996ZM289.947 112.996H295.725V118.775H289.947V112.996ZM295.725 112.996H301.503V118.775H295.725V112.996ZM301.503 112.996H307.281V118.775H301.503V112.996ZM307.281 112.996H313.059V118.775H307.281V112.996ZM307.281 107.218H313.059V112.996H307.281V107.218ZM301.503 107.218H307.281V112.996H301.503V107.218ZM295.725 107.218H301.503V112.996H295.725V107.218ZM278.39 118.775H284.169V124.553H278.39V118.775ZM284.169 118.775H289.947V124.553H284.169V118.775ZM289.947 118.775H295.725V124.553H289.947V118.775ZM289.947 124.553H295.725V130.331H289.947V124.553ZM289.947 130.331H295.725V136.109H289.947V130.331ZM289.947 136.109H295.725V141.887H289.947V136.109ZM289.947 141.887H295.725V147.665H289.947V141.887ZM284.169 141.887H289.947V147.665H284.169V141.887ZM284.169 136.109H289.947V141.887H284.169V136.109ZM284.169 130.331H289.947V136.109H284.169V130.331ZM284.169 124.553H289.947V130.331H284.169V124.553ZM278.39 124.553H284.169V130.331H278.39V124.553ZM278.39 130.331H284.169V136.109H278.39V130.331ZM278.39 136.109H284.169V141.887H278.39V136.109ZM278.39 141.887H284.169V147.665H278.39V141.887ZM278.39 147.665H284.169V153.444H278.39V147.665ZM284.169 147.665H289.947V153.444H284.169V147.665ZM289.947 147.665H295.725V153.444H289.947V147.665ZM295.725 147.665H301.503V153.444H295.725V147.665ZM295.725 153.444H301.503V159.222H295.725V153.444ZM289.947 153.444H295.725V159.222H289.947V153.444ZM284.169 153.444H289.947V159.222H284.169V153.444ZM301.503 153.444H307.281V159.222H301.503V153.444ZM307.281 153.444H313.059V159.222H307.281V153.444ZM307.281 159.222H313.059V165H307.281V159.222ZM301.503 159.222H307.281V165H301.503V159.222ZM295.725 159.222H301.503V165H295.725V159.222ZM289.947 159.222H295.725V165H289.947V159.222Z" fill="white"/>
</svg>
